# xmcd CD database file
#
# Track frame offsets:
#	150
#	14902
#	35305
#	51130
#	61340
#	77695
#	97210
#	117817
#	127420
#	143915
#	156075
#	168955
#
# Disc length: 2462 seconds
#
# Revision: 64
# Processed by: cddbd v1.4PL0 Copyright (c) Steve Scherf et al.
# Submitted via: jetAudio 5
#
DISCID=a7099c0c
DTITLE=Cranberries The - Everybody Else Is Doing It So Why Can't We?
DYEAR=1900
DGENRE=
TTITLE0=I Still Do
TTITLE1=Dreams
TTITLE2=Sunday
TTITLE3=Pretty
TTITLE4=Waltzing Back
TTITLE5=Not Sorry
TTITLE6=Linger
TTITLE7=Wanted
TTITLE8=Still Can't...
TTITLE9=I Will Always
TTITLE10=How
TTITLE11=Put Me Down
EXTD=
EXTT0=
EXTT1=
EXTT2=
EXTT3=
EXTT4=
EXTT5=
EXTT6=
EXTT7=
EXTT8=
EXTT9=
EXTT10=
EXTT11=
PLAYORDER=
